<svg width="805" height="462" xmlns="http://www.w3.org/2000/svg" xmlns:svg="http://www.w3.org/2000/svg">
 <!-- Created with SVG-edit - http://svg-edit.googlecode.com/ -->
 <g>
  <g id="group">
    <g id="inner-group">
      <g id="ear-group">
        <path id="left-ear" d="m426.5,229.5c0,0 -9.7,-131.8 -50.4,-133.2c-40.8,-1.4 -83,-8.2 -85,-8.2c-1.9,0 -44.6,28.5 -21.1,59.8c23.5,31.3 138.3,-19 142.6,81.5" stroke-width="5" stroke="#000" fill="#aa00d3"/>
        <path id="right-ear" d="m427.5,223.3c0,0 9.8,-125.6 51.1,-126.9c41.3,-1.3 84.2,-7.8 86.1,-7.8c1.9,0 45.2,27.2 21.4,57c-23.8,29.8 -140.2,-18.1 -144.5,77.7" stroke-width="5" fill="#aa00d3" stroke="#000"/>
      </g>
      <ellipse id="tail" cx="780.4" cy="271.1" rx="25" ry="25" stroke-width="5" stroke="#000" fill="#aa00d3"/>
      <line id="front-right-leg" y2="460.8" x2="426.2" y1="405.8" x1="432.2" stroke-width="5" stroke="#000"/>
      <line id="front-left-leg" y2="458.8" x2="467.2" y1="406.8" x1="458.2" stroke-width="5" stroke="#000"/>
      <line id="back-right-leg" y2="461.6" x2="605.4" y1="414.6" x1="617.4" stroke-width="5" stroke="#000"/>
      <line id="back-left-leg" y2="458.6" x2="649.4" y1="413.6" x1="635.4" stroke-width="5" stroke="#000"/>
      <ellipse id="body" cx="547.4" cy="303.85001" rx="216" ry="132.24999" stroke-width="5" stroke="#000" fill="#aa00d3"/>
      <path id="nose" d="m414.4,283.6l42.6,0.4c0.4,0.6 -20.6,28.6 -21,28c-0.4,-0.6 -21.6,-28.4 -21.6,-28.4z" stroke-width="5" stroke="#000" fill="#ff0055"/>
      <ellipse id="right-eye" cx="463.4" cy="242.6" rx="14" ry="13" stroke-width="5" stroke="#000" fill="#fff"/>
      <ellipse id="left-eye" cx="401.4" cy="246.6" rx="14" ry="13" stroke-width="5" stroke="#000" fill="#fff"/>
      <line id="right-eye-closed" y2="243.1" x2="444.5" y1="243.1" x1="482.7" stroke-width="5" stroke="#000"/>
      <line id="left-eye-closed" x1="381.7" y1="246" x2="421.8" y2="246" stroke-width="5" stroke="#000"/>
      <rect id="left-tooth" height="32.5" width="13.8" y="317" x="421" stroke-width="5" stroke="#000" fill="#fff"/>
      <rect id="right-tooth" height="26.3" width="14.8" y="317.3" x="434.8" stroke-width="5" stroke="#000" fill="#fff"/>
      <path id="left-mouth" d="m421.8,334.4l0,0c-4.6,0 -8.3,-9 -8.3,-20.1c0,-11.1 3.7,-20.1 8.3,-20.1l0,0c-2.6,4.7 -4.1,12.2 -4.1,20.1c0,7.9 1.5,15.4 4.1,20.1z" transform="rotate(-90 417.7,314.3) " stroke="#000" fill="#000"/>
      <path id="right-mouth" d="m459.6,335.7l0,0c-4.6,0 -8.3,-9 -8.3,-20.11748c0,-11.11052 3.69365,-20.11821 8.25,-20.11821l0,0c-2.6,4.7 -4.1,12.2 -4.1,20.1c0,7.9 1.5,15.4 4.1,20.1z" transform="rotate(-90 455.5,315.6) " stroke="#000" fill="#000"/>
      <g id="hat" stroke-width="5" stroke="#000" fill="#fff">
        <rect id="hat-base" x="362.4" y="147" width="116" height="84.5" transform="rotate(-12 420.5,189.2) "/>
        <path id="hat-top" d="m419.9,81.7c-0.4,0 -0.8,0 -1.2,0c-6.3,0.4 -11.9,3.3 -14.7,7.6l-1.5,3.3c0.3,-1.1 0.8,-2.2 1.5,-3.2c-5,-3.7 -12.1,-5.5 -19.1,-4.7c-7,0.8 -13,4 -16.4,8.8c-9.4,-4.1 -21.1,-3.9 -30.1,0.7c-9,4.5 -13.9,12.5 -12.4,20.6l1,3.3c-0.4,-1 -0.8,-2.1 -1,-3.3l-0.1,0.3c-7.9,0.6 -14.3,5 -16,10.8c-1.7,5.8 1.8,11.8 8.6,14.8l10.7,1.8c-3.7,0.2 -7.4,-0.4 -10.7,-1.8c-5.2,4.2 -6.5,10.4 -3,15.6c3.5,5.1 10.9,8.1 18.5,7.4l4.7,-0.9c-1.5,0.4 -3,0.7 -4.7,0.9c4.3,5.7 11.5,9.9 20,11.5c8.5,1.7 17.4,0.7 24.9,-2.7c6.1,6.9 17,10.5 27.8,9.3c10.9,-1.2 19.8,-7 23,-15l1.1,-4.4c-0.2,1.5 -0.5,3 -1.1,4.4c7.5,3.5 16.9,3.7 24.6,0.5c7.7,-3.2 12.5,-9.2 12.6,-15.9l-2.8,-9.9l-11,-6.7c8.4,3.8 13.8,9.5 13.7,16.6c10,0.1 18.6,-6.1 22.4,-13.1c3.8,-7 2.4,-15.1 -3.8,-21.1c2.6,-4.5 2.4,-9.6 -0.4,-14c-2.8,-4.4 -8,-7.7 -14.3,-9c-1.4,-5.8 -7.2,-10.5 -14.8,-12c-7.6,-1.5 -15.8,0.4 -20.9,4.9l-3.1,3.7c0.8,-1.4 1.8,-2.6 3.1,-3.7c-3.6,-3.6 -9.3,-5.6 -15.2,-5.4l0,0l0,0l0,0z" transform="rotate(-12 400.4,131.8) "/>
      </g>
      <g id="speech">
        <path id="speech-bubble" d="m338.8,39l0,0c0,-16.9 -16.9,-30.6 -37.8,-30.6l-17.2,0l0,0l-82.4,0l-154.5,0c-10,0 -19.6,3.2 -26.7,8.9c-7.1,5.7 -11.1,13.5 -11.1,21.6l0,76.4l0,0l0,45.8l0,0c0,16.9 16.9,30.6 37.8,30.6l154.5,0l107.6,77.7l-25.2,-77.7l17.2,0c20.9,0 37.8,-13.7 37.8,-30.6l0,0l0,-45.8l0,0l0,-76.4l0,0l0,0z" stroke-width="5" stroke="#000" fill="#fff"/>
        <text id="speech-text" font-weight="normal" xml:space="preserve" text-anchor="middle" font-family="serif" font-size="30" y="63" x="165" fill="#000"/>
      </g>
   </g>
  </g>
 </g>
</svg>
