<svg xmlns="http://www.w3.org/2000/svg" viewBox="-500 -500 2000 1000">
<style type="text/css">
@keyframes walk {
  0% {
    transform: rotate(0deg)
  }
  25% {
    transform: rotate(10deg)
  }
  75% {
    transform: rotate(-10deg)
  }
  100% {
    transform: rotate(0deg)
  }
}

#legs > path {
  transform-box: fill-box;
  transform-origin: 0% 0%;
}
#legs.walk #front-right-leg {
  animation: walk 2s linear 0s infinite reverse;
}
#legs.walk #front-left-leg {
  animation: walk 2s linear 1s infinite reverse;
}
#legs.walk #back-right-leg {
  animation: walk 2s linear 0s infinite;
}
#legs.walk #back-left-leg {
  animation: walk 2s linear 1s infinite;
}
#legs > path {
  transform-box: fill-box;
  transform-origin: 0% 0%;
}

#eyes>path {
  display: none;
}
#eyes.blink>path {
  display: inherit;
}
#eyes.blink>circle {
  display: none;
}

@keyframes wiggle {
  0% {
    transform: rotate(0deg)
  }
  25% {
    transform: rotate(20deg)
  }
  75% {
    transform: rotate(-20deg)
  }
  100% {
    transform: rotate(0deg)
  }
}

#nose {
  transform-box: fill-box;
  transform-origin: 50% 50%;
}
#nose.wiggle {
  animation: wiggle 0.5s linear 0s;
}


#tail {
  transform-box: fill-box;
  transform-origin: 62% 50%;
}
#tail.wiggle {
  animation: wiggle 0.75s linear 0s infinite;
}
</style>
  <g id="group" stroke-width="10" stroke="#000">
    <g id="ears">
      <path id="right-ear" d="M 200 -150 l 250 -250 a 50 50 0 0 0 -100 -50 z" fill="#a0d"/>
      <path id="left-ear" d="M 200 -150 l -250 -250 a 50 50 0 0 1 100 -50 z" fill="#a0d"/>
    </g>
    <circle id="tail" cx="-440" cy="0" r="50" fill="#a0d"/>
    <g id="legs">
      <path id="front-right-leg" d="M 200 200 l 0 75"/>
      <path id="front-left-leg" d="M 150 200 l 0 75"/>
      <path id="back-right-leg" d="M -150 200 l 0 75"/>
      <path id="back-left-leg" d="M -200 200 l 0 75"/>
    </g>
    <ellipse id="body" cx="0" cy="0" rx="400" ry="250" fill="#a0d"/>
    <g id="eyes">
      <circle id="right-eye" cx="250" cy="-100" r="45" fill="#fff"/>
      <circle id="right-pupil" cx="250" cy="-100" r="5" fill="#000"/>
      <path id="right-eye-closed" d="M 205 -100 h 90"/>
      <circle id="left-eye" cx="150" cy="-100" r="45" fill="#fff"/>
      <circle id="left-pupil" cx="150" cy="-100" r="5" fill="#000"/>
      <path id="left-eye-closed" d="M 105 -100 h 90"/>
    </g>
    <path id="nose" d="M175 -50 h 50 l -25 25 z" fill="#f05"/>
    <g id="hat" fill="#fff">
      <rect id="hat-base" x="125" y="-375" width="150" height="200" />
      <ellipse id="hat-top-1" cx="200" cy="-375" rx="200" ry="75" />
    </g>
  </g>
</svg>