<svg width="640" height="480" xmlns="http://www.w3.org/2000/svg">
 <!-- Created with SVG-edit - http://svg-edit.googlecode.com/ -->
 <g id="bunny">
  <path id="left-ear" d="m206.5,146.49997c0,0 -9.65402,-131.81711 -50.41534,-133.17738c-40.76135,-1.35909 -83.02449,-8.15304 -84.95639,-8.15304c-1.92969,0 -44.62294,28.53739 -21.13054,59.79414c23.49153,31.25549 138.26692,-19.02534 142.55757,81.53629"/>
  <path id="right-ear" d="m220.77,120.553c0,0 9,-104.461 46.99998,-105.539c38,-1.077 77.40002,-6.461 79.20102,-6.461c1.79898,0 41.60001,22.615 19.69901,47.385c-21.90002,24.769 -128.90001,-15.077 -132.90001,64.615"/>
  <ellipse id="tail" cx="560.40001" cy="183.10001" rx="25" ry="25"/>
  <line id="front-right-leg" y2="372.80002" x2="206.20001" y1="317.80002" x1="212.20001"/>
  <line id="front-left-leg" y2="370.80002" x2="247.20001" y1="318.80002" x1="238.20001"/>
  <line id="back-right-leg" y2="373.60001" x2="385.40001" y1="326.60001" x1="397.40001"/>
  <line id="back-left-leg" y2="370.60001" x2="429.40001" y1="325.60001" x1="415.40001"/>
  <ellipse id="body" cx="327.40001" cy="215.85001" rx="215.99999" ry="132.24999"/>
  <path id="nose" d="m194.40002,195.60001l42.59998,0.39999c0.40002,0.60001 -20.59998,28.60001 -21,28c-0.40002,-0.60001 -21.59998,-28.39999 -21.59998,-28.39999z"/>
  <ellipse id="right-eye" cx="243.40001" cy="154.60001" rx="14" ry="13"/>
  <ellipse id="left-eye" cx="181.40002" cy="158.6" rx="14" ry="13"/>
  <line id="right-eye-closed" y2="155.10001" x2="224.50969" y1="155.10001" x1="262.65"/>
  <line id="left-eye-closed" x1="161.70001" y1="157.95001" x2="201.82501" y2="157.95001"/>
  <rect id="left-tooth" height="32.5" width="13.75" y="229" x="201" />
  <rect id="right-tooth" height="26.25" width="14.75" y="229.25" x="214.75"/>
  <path id="left-mouth" d="m201.78802,246.43767l0,0c-4.55635,0 -8.25,-9.00677 -8.25,-20.11748c0,-11.11052 3.69365,-20.11821 8.25,-20.11821l0,0c-2.59677,4.74933 -4.12495,12.20262 -4.12495,20.11821c0,7.91501 1.52818,15.3683 4.12495,20.11748z" transform="rotate(-90 197.66302490234378,226.31982421875)"/>
  <path id="right-mouth" d="m239.625,247.71785l0,0c-4.55635,0 -8.25,-9.00677 -8.25,-20.11748c0,-11.11052 3.69365,-20.11821 8.25,-20.11821l0,0c-2.59677,4.74933 -4.12495,12.20262 -4.12495,20.11821c0,7.91501 1.52818,15.3683 4.12495,20.11748z" transform="rotate(-90 235.50000000000003,227.60000610351565)"/>
  <path id="hat" d="m254.66666,123.38715c-1.59822,-1.90525 -1.74286,-2.18921 -1.97221,-2.80299c-0.23416,-0.62663 -0.48505,-1.52592 -0.58244,-2.05294c-0.09012,-0.48769 -0.13368,-0.97831 -0.224,-1.50317c-0.16171,-0.9397 -0.25934,-1.29899 -0.46935,-2.06238c-0.1084,-0.39406 -0.3488,-1.17628 -0.48711,-1.55143c-0.37373,-1.01379 -0.64914,-1.56999 -0.95934,-2.05093c-0.29474,-0.45696 -0.8649,-1.11961 -1.28244,-1.60369c-0.44673,-0.51794 -0.89372,-1.07033 -1.07666,-1.36863c-0.56168,-0.9159 -0.73299,-1.59927 -0.79401,-1.94856c-0.12607,-0.72157 -0.13475,-1.09941 -0.1489,-1.87897c-0.01482,-0.81647 -0.00356,-1.23857 -0.00356,-1.66895c0,-0.88211 0,-1.33198 0,-1.78649c0,-0.45821 0.00067,-1.84587 -0.00021,-2.30981c-0.00089,-0.46395 -0.00145,-0.92794 -0.01401,-1.39183c-0.02512,-0.92802 -0.05371,-1.39219 -0.09955,-1.85577c-0.09184,-0.92875 -0.1792,-1.39246 -0.35045,-2.33224c-0.08768,-0.48119 -0.18103,-0.97289 -0.254,-1.47952c-0.07524,-0.52242 -0.15874,-1.06476 -0.17067,-2.2195c-0.00636,-0.61632 0.04129,-1.25613 0.108,-1.91376c0.06822,-0.67239 0.16452,-1.35356 0.276,-2.03902c0.11162,-0.68629 0.23499,-1.36774 0.50488,-2.69705c0.13007,-0.64056 0.26462,-1.26215 0.40001,-1.86505c0.13133,-0.58479 0.26439,-1.15085 0.39999,-1.69803c0.13113,-0.52916 0.25914,-1.04025 0.53334,-2.00423c0.12955,-0.45547 0.26491,-0.89324 0.394,-1.31667c0.12514,-0.41043 0.24777,-0.80933 0.358,-1.19975c0.10793,-0.38222 0.22444,-0.75739 0.3591,-1.50441c0.1337,-0.74168 0.1539,-1.11755 0.22223,-1.87511c0.03474,-0.38519 0.0965,-1.17439 0.22223,-1.99109c0.06509,-0.42282 0.25122,-1.29472 0.3591,-1.74442c0.11028,-0.45964 0.23215,-0.92799 0.358,-1.40575c0.12836,-0.48724 0.39627,-1.48897 0.66068,-2.52601c0.13449,-0.52751 0.26666,-1.05903 0.39999,-1.59225c0.13333,-0.53323 0.2655,-1.06474 0.39999,-1.59225c0.26439,-1.03704 0.39928,-1.54286 0.53334,-2.04135c0.13261,-0.49311 0.26666,-0.98232 0.39999,-1.46977c0.13333,-0.48745 0.40297,-1.46939 0.66667,-2.47436c0.13507,-0.51479 0.26768,-1.03933 0.40601,-1.57277c0.14078,-0.54291 0.28586,-1.09525 0.442,-1.65628c0.15892,-0.571 0.31905,-1.15266 0.70755,-2.33827c0.19936,-0.60841 0.42076,-1.22151 0.64799,-1.8386c0.22787,-0.61886 0.46304,-1.23503 0.696,-1.84695c0.23016,-0.60453 0.46362,-1.19733 0.87823,-2.3457c0.19739,-0.54675 0.37695,-1.07578 0.54001,-1.58668c0.1568,-0.49125 0.29745,-0.96445 0.42001,-1.41967c0.11725,-0.4356 0.2283,-0.85223 0.37332,-1.63308c0.0672,-0.36175 0.15628,-1.04214 0.19446,-1.68179c0.01855,-0.31118 0.02689,-0.93113 0.02774,-5.28879c0.00012,-0.62849 0,-0.94366 0,-1.59442c0,-0.70272 0,-1.48709 0,-1.91763c0,-0.92232 0,-1.40296 0,-1.88918c0,-0.48621 0,-0.96685 0,-1.43637c0,-1.28713 0,-1.66401 0,-2.34075c0,-0.58024 -0.15186,-1.07822 0.00604,-1.9583c0.11099,-0.61876 0.93329,-0.75769 1.87488,-0.75978c1.008,-0.00223 1.66888,0.04185 2.65845,-0.05305c1.07288,-0.10288 1.58798,-0.28583 2.39398,-0.48018c1.05927,-0.25542 1.87302,-0.34376 2.71466,-0.41817c0.5994,-0.05299 1.93274,-0.23925 2.66669,-0.37115c0.76651,-0.13776 1.54657,-0.30077 2.75266,-0.42049c0.8136,-0.08076 1.24167,-0.08717 2.14334,-0.10284c0.9971,-0.01733 2.12268,-0.0099 2.74176,-0.0099c1.33691,0 2.04401,0 2.76981,0c0.73911,0 1.48621,0 2.23599,0c1.48621,0 2.21289,0 2.92621,0c0.70001,0 2.06,0 2.72,0c0.64667,0 1.28,0.00161 3.10089,-0.00015c0.58621,-0.00056 1.7561,-0.00758 2.35022,-0.01917c0.60764,-0.01186 1.23581,-0.01557 3.27777,-0.13532c0.75357,-0.04419 1.54169,-0.1081 2.362,-0.17676c0.84903,-0.07107 1.72156,-0.15079 2.61401,-0.23522c0.90887,-0.08598 1.82941,-0.17653 3.69067,-0.36126c0.93292,-0.09259 1.86319,-0.18518 2.78799,-0.27837c0.91696,-0.09239 1.8233,-0.18475 2.716,-0.27836c0.87708,-0.09198 1.73615,-0.18111 3.38489,-0.37115c0.78784,-0.09081 1.55261,-0.18451 2.298,-0.28254c0.73193,-0.09626 1.45288,-0.19788 2.16599,-0.3076c0.71225,-0.10958 1.42749,-0.22219 2.86932,-0.4924c0.74075,-0.13882 1.4855,-0.29209 2.23001,-0.45095c0.73993,-0.15788 1.46539,-0.32029 2.17001,-0.48435c0.67981,-0.15829 1.32782,-0.31029 2.48889,-0.61117c0.50952,-0.13204 0.97256,-0.2591 1.396,-0.38414c0.77426,-0.22865 1.49033,-0.46559 2.604,-0.85304c0.84979,-0.29565 1.31134,-0.45203 2.25,-0.83123c0.49103,-0.19836 1.48743,-0.63649 2.41666,-1.17919c0.47372,-0.27666 0.9313,-0.57842 1.77423,-1.25203c0.43216,-0.34536 0.83914,-0.71604 1.24197,-1.09815c0.40973,-0.38864 1.21909,-1.20088 2.00067,-2.05789c0.39395,-0.43198 0.77036,-0.87045 1.12201,-1.31389c0.34698,-0.43754 0.68137,-0.87095 0.94199,-1.31389c0.7316,-1.24335 0.81726,-1.66302 0.91269,-2.05372c0.17758,-0.7271 0.21967,-1.3868 0.22867,-2.19971c0.0065,-0.58733 0.03415,-1.15448 -0.00357,-1.84216c-0.02731,-0.49784 -0.14389,-1.06598 -0.75378,-1.77659c-0.33487,-0.39018 -0.89117,-0.69591 -1.46487,-1.48462c-0.38654,-0.53137 -0.409,-1.14283 -0.88889,-1.85577c-0.2641,-0.39235 -0.72064,-0.75961 -1.23199,-1.14687c-0.56152,-0.42525 -1.55054,-1.10153 -1.90756,-1.34481c-0.75461,-0.51419 -1.15524,-0.78381 -2.04111,-1.31683c-0.4653,-0.27997 -1.48157,-0.83519 -2.03201,-1.10897c-0.56418,-0.28062 -1.75415,-0.82005 -2.37067,-1.07511c-0.61557,-0.25468 -1.23547,-0.49729 -1.862,-0.7154c-1.21042,-0.42137 -2.39084,-0.74621 -2.95532,-0.88737c-0.54318,-0.13583 -1.57928,-0.36176 -2.52557,-0.56756c-0.85272,-0.18544 -1.6062,-0.37203 -2.62933,-0.65199c-0.67435,-0.18453 -1.7742,-0.4721 -2.62753,-0.64828c-0.45639,-0.09423 -1.42639,-0.26544 -1.93423,-0.33898c-1.03873,-0.15042 -2.10333,-0.2616 -3.17334,-0.32538c-0.5369,-0.03201 -1.62592,-0.06245 -2.17953,-0.06928c-1.13232,-0.01398 -2.30756,-0.009 -2.91425,-0.01005c-1.25333,-0.00217 -1.90005,-0.00757 -2.56,-0.01918c-0.67343,-0.01185 -1.36063,-0.02655 -2.06,-0.05985c-2.18134,-0.10387 -2.9248,-0.18221 -3.66998,-0.24805c-0.73929,-0.06532 -1.46454,-0.13632 -2.17001,-0.20599c-0.67896,-0.06705 -1.32175,-0.14642 -2.99689,-0.28208c-0.88672,-0.07181 -1.66013,-0.10316 -2.37601,-0.16145c-1.11868,-0.09109 -1.97012,-0.21325 -2.92932,-0.35569c-0.52048,-0.07729 -1.6395,-0.25078 -2.24002,-0.33898c-1.27896,-0.18785 -1.95807,-0.27837 -2.65421,-0.36868c-0.7034,-0.09125 -2.09772,-0.26135 -2.76978,-0.33898c-0.64221,-0.07418 -1.24295,-0.15636 -2.73535,-0.29182c-0.99603,-0.09041 -1.73203,-0.10524 -2.73221,-0.11289c-0.88806,-0.0068 -1.90079,-0.15653 -1.41779,-0.3945c0.46191,-0.22758 1.69882,-0.36988 2.62045,-0.51962c0.67218,-0.1092 1.52295,-0.31812 2.25778,-0.54065c0.8479,-0.25678 1.73865,-0.54538 2.19446,-0.67426c1.2804,-0.36206 2.04004,-0.4868 2.95663,-0.63514c1.004,-0.16247 1.39603,-0.52655 1.73935,-1.24599c0.24344,-0.5101 0.47488,-0.91998 0.54599,-1.42461c0.13104,-0.93009 0.01459,-1.29652 -0.12265,-2.06857c-0.07175,-0.40355 -0.25732,-1.21751 -0.34134,-1.6207c-0.16101,-0.77261 -0.25626,-1.48042 -0.35733,-2.11929c-0.09192,-0.58099 -0.15396,-1.13452 -0.61023,-1.81989c-0.30353,-0.45594 -0.79529,-0.85655 -1.28799,-1.27491c-0.78336,-0.66516 -1.32184,-1.1454 -1.88312,-1.65473c-0.29218,-0.26514 -0.91266,-0.81289 -1.26578,-1.0813c-1.12756,-0.85702 -1.59073,-1.11831 -2.5209,-1.66896c-0.47549,-0.2815 -0.96692,-0.55536 -1.45398,-0.83509c-1.44684,-0.83103 -1.90384,-1.11139 -2.34689,-1.38811c-0.84485,-0.52769 -1.22116,-0.79089 -1.95889,-1.23641c-0.89874,-0.54277 -1.6059,-0.85089 -2.35599,-1.03475c-0.98251,-0.24083 -1.80652,-0.4646 -2.51334,-0.66621c-0.4118,-0.11747 -1.93692,-0.52209 -2.5531,-0.67148c-0.66946,-0.16231 -1.39752,-0.32897 -2.18604,-0.49689c-0.84518,-0.18 -1.7525,-0.36277 -2.72598,-0.53864c-2.12967,-0.38476 -3.2991,-0.5597 -4.52444,-0.73983c-1.27332,-0.18718 -2.59097,-0.36634 -3.94402,-0.53864c-1.37764,-0.17542 -2.7747,-0.3431 -4.18399,-0.49688c-2.81351,-0.307 -4.20699,-0.4333 -5.57512,-0.55549c-1.33234,-0.11898 -2.6201,-0.22478 -3.85201,-0.32011c-1.16458,-0.09013 -2.25217,-0.16892 -3.252,-0.23662c-1.692,-0.11456 -2.36765,-0.15429 -2.9351,-0.18681c-0.47122,-0.027 -0.85857,-0.04699 -1.174,-0.05985c-0.25526,-0.01041 -0.46265,-0.01625 -0.634,-0.01809c-0.28264,-0.00305 -0.41632,-0.00273 -0.55112,0.00123c-0.1377,0.00404 -0.28023,0.0135 -0.42599,0.03619c-0.15497,0.02411 -0.34196,0.03579 -0.86111,0.27063c-0.70139,0.31728 -1.17116,0.67336 -1.72667,1.05114c-0.94774,0.64452 -1.27727,0.88805 -1.994,1.3793c-0.37047,0.25393 -1.133,0.76652 -1.52977,1.01572c-1.17938,0.74075 -1.99185,1.17751 -2.388,1.39183c-0.77753,0.42066 -1.18089,0.61069 -1.89223,1.0547c-1.05376,0.65775 -1.64168,1.17487 -1.93243,1.43018c-0.57538,0.50522 -1.09369,1.02276 -1.91444,1.71952c-0.51567,0.43776 -1.04927,0.82966 -1.524,1.22203c-0.66853,0.55256 -1.22177,1.10306 -1.48734,1.46946c-0.56017,0.77284 -0.69312,1.32394 -0.71622,1.80474c-0.03308,0.68858 -0.0112,1.30886 0.00821,2.01026c0.00998,0.36054 -0.05759,1.07304 0.20801,1.92629c0.15961,0.51278 0.06332,0.36101 -0.70934,-0.07547c-0.34593,-0.19541 -1.16301,-0.66549 -1.61423,-0.9551c-1.02597,-0.65853 -1.56073,-1.05657 -2.12622,-1.48214c-0.59659,-0.44898 -1.20451,-0.9287 -1.828,-1.4308c-0.64238,-0.5173 -1.29108,-1.05207 -1.948,-1.59782c-1.33244,-1.10696 -1.99561,-1.66502 -2.65955,-2.21826c-0.65784,-0.54815 -1.30739,-1.0881 -1.948,-1.61592c-0.6252,-0.51512 -1.23347,-1.01411 -1.828,-1.49065c-1.11092,-0.89042 -1.63391,-1.29289 -2.13333,-1.66896c-0.47231,-0.35564 -0.92815,-0.68776 -1.37201,-0.99654c-0.42386,-0.29488 -0.83826,-0.57256 -1.252,-0.82953c-0.79356,-0.49288 -1.20067,-0.71524 -1.60533,-0.9316c-0.40118,-0.21449 -0.80859,-0.42084 -1.226,-0.61658c-0.84085,-0.39428 -2.19217,-0.95005 -2.66733,-1.13263c-0.97055,-0.37295 -1.46999,-0.54979 -1.97156,-0.72313c-0.99252,-0.34301 -1.47331,-0.52114 -2.90578,-0.92712c-0.90593,-0.25674 -1.37688,-0.36774 -2.38667,-0.53353c-0.54591,-0.08963 -1.13837,-0.16734 -2.48534,-0.25981c-0.76463,-0.05249 -1.59442,-0.07927 -2.48199,-0.09743c-0.9418,-0.01927 -1.93472,-0.02292 -2.974,-0.01392c-1.08211,0.00937 -2.20352,0.02497 -4.54401,0.11135c-1.21251,0.04475 -2.44319,0.10683 -3.68399,0.18094c-1.24458,0.07434 -2.4836,0.16151 -3.70801,0.26444c-1.20496,0.1013 -2.38455,0.19931 -4.608,0.4825c-1.04433,0.13302 -2.04034,0.28991 -2.996,0.46348c-0.93242,0.16936 -1.84079,0.36053 -2.73199,0.57205c-0.89294,0.21192 -1.78972,0.44005 -3.60533,0.9749c-0.94962,0.27973 -1.90971,0.58568 -2.87799,0.9019c-0.97131,0.3172 -1.92946,0.64193 -2.86601,0.96871c-0.91096,0.31786 -1.78595,0.62517 -3.36711,1.22234c-0.70399,0.26587 -1.34525,0.51978 -1.92999,0.76411c-0.54398,0.2273 -1.04594,0.44994 -1.51001,0.67226c-0.44472,0.21305 -0.87224,0.42566 -1.6711,0.88335c-0.40497,0.232 -0.80048,0.47832 -1.194,0.72932c-0.39404,0.2513 -0.77951,0.50693 -1.15802,0.76272c-0.37303,0.25209 -0.73489,0.50182 -1.42577,0.98232c-0.32721,0.22757 -0.64388,0.44768 -0.946,0.66668c-0.29697,0.21528 -0.58591,0.4327 -0.862,0.65833c-0.27911,0.22812 -0.56299,0.46305 -1.08089,0.9947c-0.27574,0.28305 -0.53696,0.58925 -0.794,0.91026c-0.26403,0.32974 -0.52747,0.66973 -0.99644,1.38688c-0.23722,0.36276 -0.67825,1.09947 -1.02377,1.84742c-0.17027,0.36857 -0.43041,1.11128 -0.49422,1.48462c-0.12637,0.73928 -0.0797,1.49324 0.18667,2.22445c0.13503,0.37064 0.31375,0.74238 0.86044,1.42028c0.27534,0.34142 1.35655,1.25443 1.78489,1.51138c0.85339,0.51193 1.33249,0.71912 2.27554,1.10032c0.45509,0.18395 1.75645,0.64086 2.51022,0.90314c0.68977,0.24002 1.35823,0.4726 2.048,0.71262c1.16621,0.40579 1.59999,0.55673 2.51022,0.87345c0.46577,0.16207 1.3923,0.48394 2.688,0.93531c0.38631,0.13458 1.63538,0.32234 1.99422,0.79999c0.37343,0.49707 -0.62634,0.85562 -1.25111,1.02485c-1.14067,0.30897 -2.06946,0.47148 -2.57066,0.57653c-1.10123,0.23081 -1.70403,0.36042 -2.33955,0.50972c-1.39301,0.32725 -2.14259,0.53104 -2.94223,0.74107c-0.85014,0.2233 -1.75391,0.4615 -2.724,0.6973c-1.03157,0.25075 -2.13461,0.50669 -3.32399,0.73906c-2.60842,0.5096 -4.06202,0.71449 -5.58578,0.92418c-1.58025,0.21746 -3.20944,0.4135 -4.868,0.59849c-1.66947,0.18621 -3.33785,0.35667 -4.98801,0.51497c-3.17713,0.30478 -4.67792,0.43205 -6.10667,0.55797c-1.35392,0.11933 -2.62964,0.2297 -3.822,0.33821c-1.10629,0.10069 -2.12305,0.19301 -3.042,0.29646c-1.54446,0.17386 -2.16004,0.27248 -2.68266,0.3724c-0.45319,0.08664 -0.84451,0.18227 -1.192,0.27836c-0.32446,0.08972 -0.63203,0.19008 -0.952,0.27837c-0.7091,0.19565 -1.13902,0.28093 -1.61066,0.37239c-0.50698,0.09832 -1.04572,0.19324 -1.604,0.29646c-0.5724,0.10583 -1.1526,0.21191 -1.724,0.33821c-1.11609,0.24671 -1.63417,0.39848 -2.12801,0.55797c-0.48357,0.15618 -0.94774,0.32958 -1.39799,0.51498c-0.45117,0.18578 -0.89499,0.38665 -1.33801,0.59849c-0.91828,0.43909 -1.38824,0.67954 -1.87022,0.93159c-0.49905,0.26098 -1.00751,0.54023 -1.51401,0.84762c-0.52679,0.31971 -1.06064,0.6661 -1.574,1.0564c-1.09952,0.83593 -1.60871,1.33372 -2.128,1.8533c-0.5363,0.5366 -1.05103,1.10344 -1.548,1.69107c-0.50229,0.59391 -0.98248,1.20018 -1.42799,1.81634c-0.8749,1.20998 -1.24999,1.81318 -1.58934,2.40755c-0.3306,0.57905 -0.61481,1.1548 -0.81599,1.73004c-0.19666,0.56233 -0.33967,1.12755 -0.33601,1.68828c0.0073,1.1175 0.25561,1.67771 0.52978,2.22322c0.27784,0.55278 0.65112,1.08712 1.08401,1.59782c0.43153,0.50911 0.91285,0.99168 1.44399,1.4308c1.01317,0.83762 1.57829,1.17473 2.12801,1.48585c0.53495,0.30276 1.09685,0.57101 1.67799,0.81422c0.58702,0.24566 1.20802,0.47115 1.858,0.68895c1.38375,0.46369 2.14452,0.68911 2.93689,0.93407c0.8285,0.25613 1.694,0.51997 2.594,0.79334c0.93288,0.28337 1.89843,0.57497 2.894,0.87685c2.07864,0.63029 3.15654,0.96066 4.256,1.29409c1.11164,0.33713 2.22922,0.67369 3.35,0.99933c1.11037,0.32261 2.20591,0.63558 3.29,0.91582c2.06155,0.53293 3.0484,0.74023 3.99289,0.92665c0.90153,0.17794 1.77106,0.32713 2.606,0.45791c0.79893,0.12514 1.5683,0.23155 2.306,0.33265c1.38818,0.19024 2.04273,0.28169 2.67555,0.37363c0.61696,0.08963 1.22248,0.17915 1.824,0.26027c0.60028,0.08095 1.20567,0.15868 1.82401,0.21852c1.28444,0.1243 1.96519,0.15587 2.66133,0.18558c0.70345,0.03002 1.40614,0.04795 2.098,0.05985c0.67171,0.01155 1.31422,0.01627 1.918,0.0181c1.05421,0.00319 1.48894,-0.00076 1.86489,0.00371c0.32539,0.00388 0.60914,0.01114 0.856,0.03619c0.22265,0.02259 0.42978,0.05812 0.616,0.1197c0.39835,0.1317 0.59515,0.24918 0.80888,0.37487c0.23444,0.13786 0.47364,0.30176 0.714,0.49131c0.25982,0.2049 0.52644,0.43495 0.774,0.70009c0.85024,0.91059 1.07389,1.29261 1.31955,1.6821c0.51646,0.81885 0.72614,1.26014 0.92622,1.70917c0.20183,0.45297 0.52513,1.3773 0.62845,1.8434c0.20581,0.92854 0.23477,1.40131 0.26843,1.87495c0.03397,0.4778 0.04692,0.96157 0.052,1.45168c0.01042,1.00333 0.00366,2.0463 -0.00244,2.58864c-0.00629,0.55999 -0.01836,1.14043 -0.04199,1.74396c-0.02466,0.62964 -0.05223,1.28844 -0.17422,2.702c-0.06561,0.7601 -0.15482,1.55027 -0.248,2.36471c-0.09523,0.83225 -0.19766,1.67538 -0.29601,2.52338c-0.0981,0.84601 -0.20354,1.68313 -0.34489,3.30822c-0.06741,0.77512 -0.11278,1.52658 -0.146,2.25755c-0.03246,0.71407 -0.05109,1.41531 -0.062,2.10723c-0.01083,0.68631 -0.01289,1.37079 -0.01422,2.74901c-0.00067,0.70086 0.00027,1.41289 -0.012,2.13785c-0.01253,0.73987 -0.03629,1.49657 -0.084,2.27146c-0.04899,0.79575 -0.10103,1.61529 -0.34844,3.32307c-0.12978,0.89583 -0.30905,1.81284 -0.496,2.74886c-0.18988,0.95069 -0.3955,1.90964 -0.592,2.87413c-0.1964,0.96397 -0.40932,1.92134 -0.68978,3.81052c-0.13622,0.91753 -0.22559,1.81831 -0.292,2.70014c-0.06496,0.86264 -0.10204,1.70724 -0.124,2.53313c-0.02147,0.80721 -0.02666,1.59595 -0.02844,3.11769c-0.00085,0.73334 0,1.44997 0,2.15176c0,0.6888 0,1.36647 0,2.03486c0,0.66096 -0.00022,1.31636 0,2.61787c0.00011,0.6503 -0.00014,1.30524 0.006,1.96944c0.00626,0.67814 0.0183,1.37487 0.042,2.0947c0.02461,0.74778 0.05202,1.52837 0.17422,3.2043c0.06591,0.90388 0.15488,1.84737 0.26,2.82401c0.10807,1.0041 0.23393,2.02845 0.38,3.06619c0.14722,1.046 0.296,2.09425 0.69334,4.16188c0.19449,1.01205 0.4173,2.00118 0.64799,2.96598c0.22457,0.93922 0.45975,1.84785 0.69601,2.7238c0.22697,0.84156 0.4534,1.64445 0.87822,3.12512c0.19344,0.67422 0.37592,1.31084 0.56398,1.91654c0.18187,0.5857 0.37244,1.15852 0.58801,1.72448c0.21812,0.57264 0.45029,1.16053 1.07022,2.39023c0.33781,0.67008 0.73146,1.36217 1.144,2.07383c0.4194,0.7235 0.8546,1.44482 1.28801,2.15733c0.42261,0.69478 0.83951,1.3587 1.56799,2.57333c0.31729,0.52903 0.59564,1.0098 0.838,1.4489c0.22134,0.40105 0.41563,0.7733 0.58601,1.1232c0.16142,0.33154 0.30988,0.65327 0.57599,1.2941c0.13635,0.32834 0.26685,0.66434 0.40001,1.0035c0.1335,0.34004 0.26524,0.67856 0.39999,1.01186c0.13196,0.32642 0.25552,0.64459 0.53334,1.23222c0.12799,0.27077 0.26421,0.52351 0.39398,0.76411c0.12448,0.23076 0.24806,0.45296 0.35802,0.67226c0.10823,0.21591 0.22191,0.43092 0.3591,0.88335c0.07149,0.23575 0.11415,0.48717 0.15199,0.75438c0.04068,0.28705 0.07045,0.59879 0.104,0.93808c0.0367,0.37085 0.06934,0.77748 0.18845,1.70979c0.06804,0.53262 0.15562,1.10376 0.254,1.70638c0.1024,0.62717 0.21579,1.27081 0.33801,1.92351c0.12265,0.65501 0.24489,1.30496 0.5191,2.55602c0.12939,0.5903 0.26408,1.15631 0.412,1.70082c0.14381,0.52937 0.30171,1.04562 0.48399,1.55049c0.18135,0.50226 0.36992,1.00644 0.88177,2.0067c0.2648,0.51746 0.57166,1.03235 0.90201,1.53937c0.32584,0.50009 0.66898,0.97847 1.034,1.42244c0.34384,0.41821 0.64409,0.82477 1.39734,1.36833c0.30263,0.21838 0.63133,0.36261 0.946,0.43703c0.28751,0.06799 0.58315,0.07593 0.862,0.0529c0.27702,-0.02289 0.54279,-0.08714 1.08089,-0.18063c0.26576,-0.04617 0.53668,-0.07883 0.812,-0.10995c0.28291,-0.032 0.57755,-0.06152 0.884,-0.10161c0.32385,-0.04236 0.67137,-0.08549 1.41512,-0.25238c0.41708,-0.09358 0.85312,-0.21761 1.314,-0.35352c0.48682,-0.14357 0.99194,-0.30315 1.51801,-0.47046c0.54552,-0.17351 1.10464,-0.35831 2.27911,-0.7225c0.60541,-0.18774 1.22655,-0.37317 1.866,-0.55255c0.65298,-0.18318 1.32608,-0.36072 2.022,-0.52751c0.71252,-0.17078 1.44543,-0.34373 3.00089,-0.62106c0.80927,-0.14429 1.64685,-0.26509 2.502,-0.37996c0.86755,-0.11655 1.74754,-0.22125 2.634,-0.32152c0.8882,-0.10046 1.77631,-0.19284 3.53065,-0.38106c0.85994,-0.09225 1.70547,-0.18442 2.53401,-0.28253c0.81235,-0.09619 1.60611,-0.19655 2.37799,-0.3076c0.75302,-0.10834 1.48891,-0.21158 2.86578,-0.4924c0.65765,-0.13412 1.28412,-0.29012 1.886,-0.45094c0.58391,-0.15604 1.14278,-0.32066 1.68199,-0.48436c0.52255,-0.15865 1.02232,-0.32225 1.98756,-0.61116c0.45882,-0.13733 0.90898,-0.26329 1.35199,-0.37997c0.43526,-0.11464 0.86929,-0.22124 1.304,-0.3215c0.43553,-0.10046 0.87666,-0.19797 1.78845,-0.38106c0.47253,-0.09488 0.96004,-0.18671 1.45999,-0.28255c0.51338,-0.0984 1.04054,-0.19942 1.58,-0.30759c0.55391,-0.11108 1.12361,-0.22366 2.29333,-0.4924c0.60793,-0.13966 1.22278,-0.293 1.84201,-0.45512c0.62347,-0.16324 1.24309,-0.33452 1.85399,-0.51358c0.60376,-0.17699 1.19698,-0.35155 2.304,-0.73242c0.5244,-0.18042 1.02046,-0.36894 1.498,-0.55673c0.46643,-0.18341 0.91902,-0.37074 1.366,-0.55673c0.44502,-0.18517 0.88631,-0.37639 1.80267,-0.74231c0.47112,-0.18811 0.95779,-0.37286 1.45999,-0.55255c0.51112,-0.18288 1.03741,-0.36002 1.58,-0.5275c0.55078,-0.17003 1.11227,-0.34068 2.29333,-0.62106c0.60315,-0.14319 1.22917,-0.26431 1.866,-0.39667c1.32996,-0.27641 2.02591,-0.43097 2.73689,-0.61549c0.74181,-0.19254 2.29279,-0.6801 3.09889,-0.98512c0.84421,-0.31943 1.69879,-0.68102 2.57201,-1.06474c0.8967,-0.39404 1.79941,-0.81003 2.71599,-1.23177c0.92522,-0.42572 2.78487,-1.27699 3.72112,-1.68628c0.9287,-0.40599 1.85747,-0.79803 2.786,-1.17331c0.91644,-0.37041 1.82918,-0.72368 2.73801,-1.0564c0.89218,-0.32661 2.65044,-0.92 3.51378,-1.18367c0.84172,-0.25706 1.6718,-0.49092 2.48599,-0.70565c0.79082,-0.20857 1.56471,-0.39779 2.31801,-0.57204c0.72768,-0.16833 2.11328,-0.46517 2.76711,-0.59802c0.62444,-0.12688 1.22026,-0.24285 1.786,-0.34795c0.53253,-0.09895 1.03233,-0.18721 1.498,-0.26445c0.42862,-0.0711 1.17349,-0.18288 1.48801,-0.22285c0.27756,-0.03527 0.52351,-0.06252 0.742,-0.07934c0.36731,-0.02827 1.34999,-0.0334 2.12444,-0.0334c1.02312,0 1.72011,0.03204 2.79066,-0.00015c0.88248,-0.02654 1.34836,-0.4829 1.36224,-1.11578c0.01245,-0.56749 0,-1.24352 0,-1.91021c0,-0.48621 0.02582,-0.98006 -0.00357,-1.90526c-0.01324,-0.41718 -0.04727,-1.03582 -0.58667,-1.74937c-0.29703,-0.39297 -0.98404,-0.90894 -1.31911,-1.29904c-0.61351,-0.71426 -0.74092,-1.3404 -0.89778,-1.77628c-0.27538,-0.76521 -0.61363,-1.35394 -0.81799,-1.6702c-0.4399,-0.68076 -0.69887,-1.03466 -1.29222,-1.75215c-0.6185,-0.74791 -0.9736,-1.11225 -1.32445,-1.47843c-0.68958,-0.71974 -1.04039,-1.05709 -1.66888,-1.70036c-0.28511,-0.29181 -0.84563,-1.0612 -1.36711,-1.65921c-0.45671,-0.52374 -1.3889,-0.54127 -2.16667,-0.54127c-0.744,0 -1.87045,0 -2.86644,0c-0.56201,0 -1.16135,0 -1.79401,0c-1.34933,0 -2.784,0 -3.52422,0c-0.7549,0 -1.52579,0 -2.31401,0c-0.80688,0 -1.63377,0 -2.48199,0c-0.8709,0 -2.686,-0.00045 -3.632,0.00015c-0.96866,0.00063 -1.95602,0.00221 -2.95799,0.00974c-1.0127,0.00761 -2.03214,0.02025 -3.054,0.04315c-1.02084,0.02287 -3.04251,0.09705 -4.03534,0.15248c-0.98053,0.05474 -1.9472,0.12259 -2.89999,0.19903c-0.94055,0.07546 -1.86707,0.16006 -2.78,0.24915c-0.90042,0.08786 -2.66028,0.27293 -3.51979,0.36713c-0.84538,0.09264 -1.67496,0.18664 -2.48599,0.28811c-0.79387,0.09932 -1.56775,0.20424 -2.31799,0.32151c-0.73067,0.11422 -2.1171,0.37335 -2.76868,0.52395c-0.63916,0.14772 -1.26422,0.31469 -1.884,0.49689c-0.631,0.18549 -1.27095,0.3923 -1.93199,0.61379c-0.69373,0.23244 -2.196,0.75576 -3.02045,1.04263c-0.86444,0.30079 -1.75555,0.61086 -2.66,0.92557c-0.90443,0.3147 -1.79555,0.62477 -2.66,0.92557c-0.82443,0.28687 -2.29984,0.80051 -2.92822,1.01881c-0.5574,0.19365 -1.0531,0.36562 -1.49799,0.51637c-0.40097,0.13586 -0.76875,0.25768 -1.11401,0.36605c-0.32857,0.10313 -0.98145,0.29188 -1.32178,0.38383c-0.35121,0.09489 -1.08865,0.28346 -1.85222,0.49719c-0.39316,0.11005 -1.59207,0.48425 -2.38933,0.78809c-0.83165,0.31694 -1.24852,0.50116 -2.1489,0.85287c-0.47331,0.1849 -2.03587,0.74049 -2.6031,0.92248c-0.57721,0.18519 -1.16289,0.36504 -2.32889,0.71014c-0.56482,0.16717 -1.1167,0.31638 -2.56378,0.75608c-0.817,0.24825 -1.58032,0.50182 -1.96777,0.63328c-0.83543,0.28345 -1.80681,0.62274 -2.97423,1.03057c-0.65431,0.22858 -1.34991,0.47304 -2.082,0.73349c-0.7666,0.27274 -1.56284,0.55813 -2.382,0.85876c-1.7045,0.62556 -2.57449,0.95802 -3.45599,1.2941c-0.88785,0.33849 -1.77536,0.68002 -2.662,1.01743c-0.87869,0.33438 -1.74498,0.66371 -2.60201,0.97567c-1.64227,0.5978 -2.4319,0.86263 -3.1911,1.10974c-0.72272,0.23524 -1.41327,0.44839 -2.06799,0.64025c-0.61121,0.17911 -1.18082,0.33833 -1.70801,0.47321c-0.89929,0.23007 -1.27641,0.30884 -1.60356,0.37488c-0.28279,0.05707 -1.26741,0.21106 -2.0551,0.55177c-0.82164,0.35541 -1.77434,0.45982 -2.08534,0.97737c-0.23436,0.39 -0.04799,1.39801 -0.04799,1.72339c0,0.71014 0,1.08006 0,1.81248c0,0.34764 0,1.45615 0,1.97391c0,0.72685 0,1.28358 0,1.95244c0,0.59926 -0.05508,1.21716 0.07622,1.69478c0.20161,0.73341 0.66061,1.10152 1.106,1.58421c0.59926,0.64946 1.02328,1.20651 1.45667,1.80504c0.21666,0.29924 0.63857,0.86958 1.03755,1.6105c0.35667,0.66235 0.75145,1.33672 1.08266,1.62224c0.57423,0.49504 1.27002,0.95345 1.87866,1.38673c0.64647,0.46021 1.20024,1.04062 1.35623,1.59735l0.00601,0.64952"/>
 </g>
</svg>
